<?xml version="1.0" encoding="UTF-8"?>
<svg xmlns="http://www.w3.org/2000/svg" xmlns:xlink="http://www.w3.org/1999/xlink" width="2834.88" height="2834.88" viewBox="0 0 2834.88 2834.88">
<path fill-rule="evenodd" fill="rgb(13.305664%, 69.726562%, 29.393005%)" fill-opacity="1" d="M 1366.199219 576.890625 C 1379.058594 562.078125 1397.710938 553.570312 1417.320312 553.570312 C 1436.941406 553.570312 1455.589844 562.078125 1468.449219 576.890625 L 1553.628906 675.019531 C 1561.25 683.800781 1571.460938 689.929688 1582.800781 692.511719 C 1594.128906 695.101562 1605.988281 694.011719 1616.671875 689.410156 L 1735.988281 637.960938 C 1754 630.191406 1774.5 630.621094 1792.171875 639.128906 C 1809.839844 647.640625 1822.949219 663.390625 1828.109375 682.320312 L 1862.28125 807.691406 C 1865.339844 818.910156 1871.878906 828.859375 1880.96875 836.109375 C 1890.058594 843.359375 1901.21875 847.519531 1912.828125 848.011719 L 2042.671875 853.421875 C 2062.261719 854.238281 2080.539062 863.511719 2092.769531 878.851562 C 2105 894.191406 2109.980469 914.070312 2106.421875 933.359375 L 2082.800781 1061.140625 C 2080.691406 1072.570312 2082.269531 1084.378906 2087.308594 1094.851562 C 2092.359375 1105.328125 2100.601562 1113.921875 2110.859375 1119.398438 L 2225.480469 1180.609375 C 2242.789062 1189.851562 2255.230469 1206.140625 2259.601562 1225.261719 C 2263.960938 1244.378906 2259.820312 1264.460938 2248.238281 1280.289062 L 2171.519531 1385.171875 C 2164.660156 1394.558594 2160.960938 1405.878906 2160.960938 1417.5 C 2160.960938 1429.128906 2164.660156 1440.449219 2171.519531 1449.828125 L 2248.238281 1554.71875 C 2259.820312 1570.550781 2263.960938 1590.621094 2259.601562 1609.75 C 2255.230469 1628.871094 2242.789062 1645.160156 2225.480469 1654.398438 L 2110.859375 1715.609375 C 2100.601562 1721.089844 2092.359375 1729.679688 2087.308594 1740.148438 C 2082.269531 1750.628906 2080.691406 1762.441406 2082.800781 1773.871094 L 2106.421875 1901.648438 C 2109.980469 1920.9375 2105 1940.820312 2092.769531 1956.15625 C 2080.539062 1971.492188 2062.261719 1980.769531 2042.671875 1981.589844 L 1912.828125 1987 C 1901.21875 1987.484375 1890.058594 1991.652344 1880.96875 1998.898438 C 1871.878906 2006.148438 1865.339844 2016.101562 1862.28125 2027.316406 L 1828.109375 2152.6875 C 1822.949219 2171.613281 1809.839844 2187.371094 1792.171875 2195.882812 C 1774.5 2204.390625 1754 2204.820312 1735.988281 2197.050781 L 1616.671875 2145.597656 C 1605.988281 2140.992188 1594.128906 2139.90625 1582.800781 2142.492188 C 1571.460938 2145.078125 1561.25 2151.207031 1553.628906 2159.984375 L 1468.449219 2258.117188 C 1455.589844 2272.929688 1436.941406 2281.4375 1417.320312 2281.4375 C 1397.710938 2281.4375 1379.058594 2272.929688 1366.199219 2258.117188 L 1281.019531 2159.984375 C 1273.398438 2151.207031 1263.179688 2145.078125 1251.851562 2142.492188 C 1240.519531 2139.90625 1228.648438 2140.992188 1217.980469 2145.597656 L 1098.660156 2197.050781 C 1080.640625 2204.820312 1060.148438 2204.390625 1042.480469 2195.882812 C 1024.800781 2187.371094 1011.691406 2171.613281 1006.53125 2152.6875 L 972.367188 2027.316406 C 969.308594 2016.101562 962.761719 2006.148438 953.675781 1998.898438 C 944.585938 1991.652344 933.425781 1987.484375 921.8125 1987 L 791.980469 1981.589844 C 772.382812 1980.769531 754.101562 1971.492188 741.871094 1956.15625 C 729.640625 1940.820312 724.664062 1920.9375 728.230469 1901.648438 L 751.84375 1773.871094 C 753.957031 1762.441406 752.375 1750.628906 747.332031 1740.148438 C 742.289062 1729.679688 734.042969 1721.089844 723.789062 1715.609375 L 609.160156 1654.398438 C 591.859375 1645.160156 579.414062 1628.871094 575.050781 1609.75 C 570.683594 1590.621094 574.828125 1570.550781 586.410156 1554.71875 L 663.128906 1449.828125 C 669.988281 1440.449219 673.6875 1429.128906 673.6875 1417.5 C 673.6875 1405.878906 669.988281 1394.558594 663.128906 1385.171875 L 586.410156 1280.289062 C 574.828125 1264.460938 570.683594 1244.378906 575.050781 1225.261719 C 579.414062 1206.140625 591.859375 1189.851562 609.160156 1180.609375 L 723.789062 1119.398438 C 734.042969 1113.921875 742.289062 1105.328125 747.332031 1094.851562 C 752.375 1084.378906 753.957031 1072.570312 751.84375 1061.140625 L 728.230469 933.359375 C 724.664062 914.070312 729.640625 894.191406 741.871094 878.851562 C 754.101562 863.511719 772.382812 854.238281 791.980469 853.421875 L 921.8125 848.011719 C 933.425781 847.519531 944.585938 843.359375 953.675781 836.109375 C 962.761719 828.859375 969.308594 818.910156 972.367188 807.691406 L 1006.53125 682.320312 C 1011.691406 663.390625 1024.800781 647.640625 1042.480469 639.128906 C 1060.148438 630.621094 1080.640625 630.191406 1098.660156 637.960938 L 1217.980469 689.410156 C 1228.648438 694.011719 1240.519531 695.101562 1251.851562 692.511719 C 1263.179688 689.929688 1273.398438 683.800781 1281.019531 675.019531 Z M 1018.289062 1469.539062 L 1282.011719 1715.679688 C 1300.800781 1733.21875 1325.878906 1742.421875 1351.550781 1741.191406 C 1377.21875 1739.960938 1401.300781 1728.410156 1418.328125 1709.160156 L 1822.710938 1252.039062 C 1857.539062 1212.671875 1853.851562 1152.429688 1814.480469 1117.601562 C 1775.109375 1082.769531 1714.859375 1086.460938 1680.039062 1125.828125 L 1340.46875 1509.691406 L 1148.261719 1330.289062 C 1109.828125 1294.421875 1049.511719 1296.5 1013.640625 1334.929688 C 977.777344 1373.359375 979.859375 1433.671875 1018.289062 1469.539062 "/>
<path fill-rule="evenodd" fill="rgb(0%, 0%, 0%)" fill-opacity="1" d="M 1366.140625 576.839844 C 1379.011719 562.011719 1397.679688 553.488281 1417.320312 553.488281 C 1436.960938 553.488281 1455.628906 562.011719 1468.511719 576.839844 L 1553.691406 674.96875 C 1561.300781 683.738281 1571.5 689.851562 1582.808594 692.441406 C 1594.128906 695.019531 1605.980469 693.929688 1616.628906 689.339844 L 1735.960938 637.878906 C 1753.988281 630.109375 1774.511719 630.53125 1792.210938 639.050781 C 1809.898438 647.570312 1823.03125 663.351562 1828.191406 682.300781 L 1862.359375 807.671875 C 1865.410156 818.871094 1871.949219 828.808594 1881.019531 836.039062 C 1890.101562 843.28125 1901.238281 847.441406 1912.839844 847.929688 L 2042.671875 853.339844 C 2062.289062 854.160156 2080.589844 863.449219 2092.839844 878.800781 C 2105.078125 894.148438 2110.058594 914.058594 2106.488281 933.371094 L 2082.878906 1061.160156 C 2080.769531 1072.570312 2082.351562 1084.359375 2087.390625 1094.820312 C 2092.421875 1105.28125 2100.660156 1113.859375 2110.890625 1119.328125 L 2225.519531 1180.539062 C 2242.839844 1189.789062 2255.300781 1206.101562 2259.679688 1225.238281 C 2264.039062 1244.390625 2259.890625 1264.488281 2248.300781 1280.339844 L 2171.578125 1385.21875 C 2164.730469 1394.589844 2161.039062 1405.898438 2161.039062 1417.5 C 2161.039062 1429.109375 2164.730469 1440.421875 2171.578125 1449.789062 L 2248.300781 1554.671875 C 2259.890625 1570.519531 2264.039062 1590.621094 2259.679688 1609.769531 C 2255.300781 1628.910156 2242.839844 1645.21875 2225.519531 1654.46875 L 2110.890625 1715.679688 C 2100.660156 1721.148438 2092.421875 1729.730469 2087.390625 1740.191406 C 2082.351562 1750.648438 2080.769531 1762.441406 2082.878906 1773.851562 L 2106.488281 1901.632812 C 2110.058594 1920.945312 2105.078125 1940.855469 2092.839844 1956.207031 C 2080.589844 1971.5625 2062.289062 1980.851562 2042.671875 1981.667969 L 1912.839844 1987.082031 C 1901.238281 1987.566406 1890.101562 1991.726562 1881.019531 1998.964844 C 1871.949219 2006.199219 1865.410156 2016.136719 1862.359375 2027.335938 L 1828.191406 2152.710938 C 1823.03125 2171.65625 1809.898438 2187.433594 1792.210938 2195.953125 C 1774.511719 2204.476562 1753.988281 2204.902344 1735.960938 2197.125 L 1616.628906 2145.671875 C 1605.980469 2141.074219 1594.128906 2139.988281 1582.808594 2142.570312 C 1571.5 2145.15625 1561.300781 2151.273438 1553.691406 2160.039062 L 1468.511719 2258.171875 C 1455.628906 2273 1436.960938 2281.519531 1417.320312 2281.519531 C 1397.679688 2281.519531 1379.011719 2273 1366.140625 2258.171875 L 1280.960938 2160.039062 C 1273.351562 2151.273438 1263.148438 2145.15625 1251.828125 2142.570312 C 1240.511719 2139.988281 1228.671875 2141.074219 1218.011719 2145.671875 L 1098.691406 2197.125 C 1080.648438 2204.902344 1060.128906 2204.476562 1042.441406 2195.953125 C 1024.75 2187.433594 1011.621094 2171.65625 1006.460938 2152.710938 L 972.289062 2027.335938 C 969.234375 2016.136719 962.699219 2006.199219 953.625 1998.964844 C 944.550781 1991.726562 933.40625 1987.566406 921.808594 1987.082031 L 791.976562 1981.667969 C 772.355469 1980.851562 754.054688 1971.5625 741.808594 1956.207031 C 729.566406 1940.855469 724.582031 1920.945312 728.152344 1901.632812 L 751.765625 1773.851562 C 753.871094 1762.441406 752.296875 1750.648438 747.257812 1740.191406 C 742.222656 1729.730469 733.988281 1721.148438 723.75 1715.679688 L 609.125 1654.46875 C 591.800781 1645.21875 579.339844 1628.910156 574.972656 1609.769531 C 570.601562 1590.621094 574.75 1570.519531 586.34375 1554.671875 L 663.0625 1449.789062 C 669.914062 1440.421875 673.609375 1429.109375 673.609375 1417.5 C 673.609375 1405.898438 669.914062 1394.589844 663.0625 1385.21875 L 586.34375 1280.339844 C 574.75 1264.488281 570.601562 1244.390625 574.972656 1225.238281 C 579.339844 1206.101562 591.800781 1189.789062 609.125 1180.539062 L 723.75 1119.328125 C 733.988281 1113.859375 742.222656 1105.28125 747.257812 1094.820312 C 752.296875 1084.359375 753.871094 1072.570312 751.765625 1061.160156 L 728.152344 933.371094 C 724.582031 914.058594 729.566406 894.148438 741.808594 878.800781 C 754.054688 863.449219 772.355469 854.160156 791.976562 853.339844 L 921.808594 847.929688 C 933.40625 847.441406 944.550781 843.28125 953.625 836.039062 C 962.699219 828.808594 969.234375 818.871094 972.289062 807.671875 L 1006.460938 682.300781 C 1011.621094 663.351562 1024.75 647.570312 1042.441406 639.050781 C 1060.128906 630.53125 1080.648438 630.109375 1098.691406 637.878906 L 1218.011719 689.339844 C 1228.671875 693.929688 1240.511719 695.019531 1251.828125 692.441406 C 1263.148438 689.851562 1273.351562 683.738281 1280.960938 674.96875 Z M 1366.199219 576.890625 L 1281.019531 675.019531 C 1273.398438 683.800781 1263.179688 689.929688 1251.851562 692.511719 C 1240.519531 695.101562 1228.648438 694.011719 1217.980469 689.410156 L 1098.660156 637.960938 C 1080.640625 630.191406 1060.148438 630.621094 1042.480469 639.128906 C 1024.800781 647.640625 1011.691406 663.390625 1006.53125 682.320312 L 972.367188 807.691406 C 969.308594 818.910156 962.761719 828.859375 953.675781 836.109375 C 944.585938 843.359375 933.425781 847.519531 921.8125 848.011719 L 791.980469 853.421875 C 772.382812 854.238281 754.101562 863.511719 741.871094 878.851562 C 729.640625 894.191406 724.664062 914.070312 728.230469 933.359375 L 751.84375 1061.140625 C 753.957031 1072.570312 752.375 1084.378906 747.332031 1094.851562 C 742.289062 1105.328125 734.042969 1113.921875 723.789062 1119.398438 L 609.160156 1180.609375 C 591.859375 1189.851562 579.414062 1206.140625 575.050781 1225.261719 C 570.683594 1244.378906 574.828125 1264.460938 586.410156 1280.289062 L 663.128906 1385.171875 C 669.988281 1394.558594 673.6875 1405.878906 673.6875 1417.5 C 673.6875 1429.128906 669.988281 1440.449219 663.128906 1449.828125 L 586.410156 1554.71875 C 574.828125 1570.550781 570.683594 1590.621094 575.050781 1609.75 C 579.414062 1628.871094 591.859375 1645.160156 609.160156 1654.398438 L 723.789062 1715.609375 C 734.042969 1721.089844 742.289062 1729.679688 747.332031 1740.148438 C 752.375 1750.628906 753.957031 1762.441406 751.84375 1773.871094 L 728.230469 1901.648438 C 724.664062 1920.9375 729.640625 1940.820312 741.871094 1956.15625 C 754.101562 1971.492188 772.382812 1980.769531 791.980469 1981.589844 L 921.8125 1987 C 933.425781 1987.484375 944.585938 1991.652344 953.675781 1998.898438 C 962.761719 2006.148438 969.308594 2016.101562 972.367188 2027.316406 L 1006.53125 2152.6875 C 1011.691406 2171.613281 1024.800781 2187.371094 1042.480469 2195.882812 C 1060.148438 2204.390625 1080.640625 2204.820312 1098.660156 2197.050781 L 1217.980469 2145.597656 C 1228.648438 2140.992188 1240.519531 2139.90625 1251.851562 2142.492188 C 1263.179688 2145.078125 1273.398438 2151.207031 1281.019531 2159.984375 L 1366.199219 2258.117188 C 1379.058594 2272.929688 1397.710938 2281.4375 1417.320312 2281.4375 C 1436.941406 2281.4375 1455.589844 2272.929688 1468.449219 2258.117188 L 1553.628906 2159.984375 C 1561.25 2151.207031 1571.460938 2145.078125 1582.800781 2142.492188 C 1594.128906 2139.90625 1605.988281 2140.992188 1616.671875 2145.597656 L 1735.988281 2197.050781 C 1754 2204.820312 1774.5 2204.390625 1792.171875 2195.882812 C 1809.839844 2187.371094 1822.949219 2171.613281 1828.109375 2152.6875 L 1862.28125 2027.316406 C 1865.339844 2016.101562 1871.878906 2006.148438 1880.96875 1998.898438 C 1890.058594 1991.652344 1901.21875 1987.484375 1912.828125 1987 L 2042.671875 1981.589844 C 2062.261719 1980.769531 2080.539062 1971.492188 2092.769531 1956.15625 C 2105 1940.820312 2109.980469 1920.9375 2106.421875 1901.648438 L 2082.800781 1773.871094 C 2080.691406 1762.441406 2082.269531 1750.628906 2087.308594 1740.148438 C 2092.359375 1729.679688 2100.601562 1721.089844 2110.859375 1715.609375 L 2225.480469 1654.398438 C 2242.789062 1645.160156 2255.230469 1628.871094 2259.601562 1609.75 C 2263.960938 1590.621094 2259.820312 1570.550781 2248.238281 1554.71875 L 2171.519531 1449.828125 C 2164.660156 1440.449219 2160.960938 1429.128906 2160.960938 1417.5 C 2160.960938 1405.878906 2164.660156 1394.558594 2171.519531 1385.171875 L 2248.238281 1280.289062 C 2259.820312 1264.460938 2263.960938 1244.378906 2259.601562 1225.261719 C 2255.230469 1206.140625 2242.789062 1189.851562 2225.480469 1180.609375 L 2110.859375 1119.398438 C 2100.601562 1113.921875 2092.359375 1105.328125 2087.308594 1094.851562 C 2082.269531 1084.378906 2080.691406 1072.570312 2082.800781 1061.140625 L 2106.421875 933.359375 C 2109.980469 914.070312 2105 894.191406 2092.769531 878.851562 C 2080.539062 863.511719 2062.261719 854.238281 2042.671875 853.421875 L 1912.828125 848.011719 C 1901.21875 847.519531 1890.058594 843.359375 1880.96875 836.109375 C 1871.878906 828.859375 1865.339844 818.910156 1862.28125 807.691406 L 1828.109375 682.320312 C 1822.949219 663.390625 1809.839844 647.640625 1792.171875 639.128906 C 1774.5 630.621094 1754 630.191406 1735.988281 637.960938 L 1616.671875 689.410156 C 1605.988281 694.011719 1594.128906 695.101562 1582.800781 692.511719 C 1571.460938 689.929688 1561.25 683.800781 1553.628906 675.019531 L 1468.449219 576.890625 C 1455.589844 562.078125 1436.941406 553.570312 1417.320312 553.570312 C 1397.710938 553.570312 1379.058594 562.078125 1366.199219 576.890625 Z M 1018.289062 1469.539062 C 979.859375 1433.671875 977.777344 1373.359375 1013.640625 1334.929688 C 1049.511719 1296.5 1109.828125 1294.421875 1148.261719 1330.289062 L 1340.46875 1509.691406 L 1680.039062 1125.828125 C 1714.859375 1086.460938 1775.109375 1082.769531 1814.480469 1117.601562 C 1853.851562 1152.429688 1857.539062 1212.671875 1822.710938 1252.039062 L 1418.328125 1709.160156 C 1401.300781 1728.410156 1377.21875 1739.960938 1351.550781 1741.191406 C 1325.878906 1742.421875 1300.800781 1733.21875 1282.011719 1715.679688 Z M 1018.339844 1469.480469 L 1282.058594 1715.621094 C 1300.839844 1733.148438 1325.890625 1742.339844 1351.539062 1741.109375 C 1377.191406 1739.878906 1401.261719 1728.339844 1418.269531 1709.109375 L 1822.648438 1251.988281 C 1857.449219 1212.648438 1853.761719 1152.460938 1814.421875 1117.660156 C 1775.089844 1082.859375 1714.890625 1086.550781 1680.101562 1125.878906 L 1340.53125 1509.738281 C 1340.519531 1509.75 1340.5 1509.769531 1340.480469 1509.769531 C 1340.449219 1509.769531 1340.429688 1509.761719 1340.421875 1509.738281 L 1148.199219 1330.351562 C 1109.808594 1294.511719 1049.539062 1296.589844 1013.699219 1334.980469 C 977.867188 1373.378906 979.945312 1433.648438 1018.339844 1469.480469 "/>
</svg>
